<svg xmlns="http://www.w3.org/2000/svg" class="svg-scroll-down" viewBox="0 0 230 480">
				<polyline points="118.30300903320312,171.64300537109375 110.0880126953125,171.64300537109375 110.0880126953125,413.2349853515625 110.0880126953125,433.14599609375 87.0469970703125,410.10498046875 81.23800659179688,415.9119873046875 114.19601440429688,448.8690185546875 147.15200805664062,415.9119873046875 141.343994140625,410.10498046875 118.30300903320312,433.14599609375 " class="svg-scroll-down-arrow"/>
				<path stroke="null" id="svg_2" d="m118.303,367.42c58.983,-1.825 106.31,-42.722 106.31,-92.762l0,-177.288c0,-51.197 -49.532,-92.849 -110.417,-92.849c-60.886,0 -110.419,41.652 -110.419,92.849l0,177.288c0,47.705 43.014,87.105 98.133,92.261l0,-8.258c-50.58,-5.042 -89.918,-40.777 -89.918,-84.003l0,-177.288c0,-46.669 45.849,-84.637 102.205,-84.637c56.353,0 102.202,37.968 102.202,84.637l0,177.288c0,45.529 -43.638,82.759 -98.095,84.55"/>
				<path d="m147.498,94.433c0,-18.366 -14.939,-33.304 -33.305,-33.304c-18.363,0 -33.302,14.938 -33.302,33.304c0,18.362 14.939,33.301 33.302,33.301c18.366,0 33.305,-14.939 33.305,-33.301zm-58.394,0c0,-13.835 11.257,-25.092 25.089,-25.092c13.836,0 25.089,11.257 25.089,25.092c0,13.834 -11.253,25.089 -25.089,25.089c-13.832,0 -25.089,-11.254 -25.089,-25.089z" class="svg-scroll-down-circle"/>
		</svg>
